<?xml version="1.0" encoding="utf-8"?>
<!-- Generator: Adobe Illustrator 25.2.3, SVG Export Plug-In . SVG Version: 6.00 Build 0)  -->
<svg version="1.1" id="SvgjsSvg1001" xmlns:svgjs="http://svgjs.com/svgjs"
	 xmlns="http://www.w3.org/2000/svg" xmlns:xlink="http://www.w3.org/1999/xlink" x="0px" y="0px" viewBox="0 0 360 360"
	 style="enable-background:new 0 0 360 360;" xml:space="preserve">
<style type="text/css">
	.st0{fill:none;stroke:#050802;stroke-width:0.72;stroke-linecap:round;stroke-miterlimit:10;}
	.st1{fill:#BC6C25;}
	.st2{fill:#F0D0AC;}
	.st3{fill:#F8E0C6;}
	.st4{fill:#283618;}
	.st5{fill:#FFD09C;}
	.st6{fill:#FFB159;}
	.st7{fill:#DDA15E;}
	.st8{fill:#050802;}
	.st9{fill:none;stroke:#050802;stroke-width:1.2;stroke-linecap:round;stroke-miterlimit:10;}
	.st10{fill:#606C38;}
	.st11{fill:#F1DFCB;}
</style>
<g id="SvgjsG1008">
	<path class="st0" d="M205.8,203.4l-0.9,5.5"/>
	<path class="st1" d="M195.8,119.9c-2.1-3,0.2-7.1,3.9-6.9l0,0c2.8,0.2,5.4,1.1,7.7,2.7l24.9,17.3c6.4,4.4,6.6,13.8,0.4,18.5l0,0
		c-5.2,3.9-12.5,2.8-16.3-2.5L195.8,119.9z"/>
	<path class="st1" d="M209.3,117.3l15.9-8.1l11.9,29.8c2.1,5.3-0.7,11.3-6.1,13l0,0c-5.2,1.7-10.8-1.1-12.4-6.3L209.3,117.3z"/>
	<path class="st0" d="M217.6,142.8l-8.1-25.3"/>
	<path class="st2" d="M193.3,163.5L193.3,163.5c7.9-0.3,14.5,5.8,14.8,13.7l1.8,45.2c0.3,7.9-5.8,14.5-13.7,14.8l0,0
		c-7.9,0.3-14.5-5.8-14.8-13.7l-1.8-45.2C179.4,170.4,185.5,163.8,193.3,163.5z"/>
	<path class="st2" d="M182.3,223.6c-0.6-7.8,5.4-14.5,13.2-14.8l0,0c7.6-0.3,14.1,5.6,14.4,13.2l2.4,53.2l-26.1,1.2L182.3,223.6z"/>
	<path class="st1" d="M205.3,170l1.6-25.8l-44.6-9.4l-1.7,10l3.3,25.2H205.3z"/>
	<path class="st3" d="M157.3,184.9c1-10.1,9.6-17.6,19.7-17.3l17,0.5l-11.2,56.8c-1.4,7-7.6,12-14.8,11.8l0,0
		c-8.5-0.2-15-7.6-14.2-16.1L157.3,184.9z"/>
	<path class="st3" d="M153.7,221.5c0.6-7.9,7.7-13.6,15.5-12.7l0,0l0,0c8.6,1.2,14.6,9.3,13.3,17.9l-7.6,50.4l-26,3L153.7,221.5z"/>
	<path class="st4" d="M174.2,275h-26.6l2.4,18h37c0-4.3-1.8-8.3-5-11.2L174.2,275z M212.8,275h-26.6l3.4,18h36c0-4.3-1.8-8.3-5-11.2
		L212.8,275z"/>
	<path class="st1" d="M204.5,145.4H163c-1.4,0-2.4-1.1-2.4-2.5l1.1-32.3c0-1.1,0.9-2.1,2-2.3l11.1-1.8c0.1,0,0.3,0,0.4,0h19.6
		c5,0,9.9,1.7,13.9,4.8c0.5,0.4,0.8,1.1,0.8,1.8l-2.5,30.1C206.8,144.5,205.7,145.4,204.5,145.4z"/>
	<path class="st5" d="M197.8,101.9h-3.1v5l-9.5,6.4l-9.2-6.4l-0.1-25.3c0-6.6,5.4-12,12-12h5.2c6.6,0,12,5.4,12,12v13.1
		C205,98.7,201.8,101.9,197.8,101.9z"/>
	<path class="st4" d="M175.9,97.9c5,0.8,14.4-2,17.3-13.5c2.1,1.1,6.1,1.7,5.2-4.2c1.2,2.6,4.3,3.7,6.5,4v-2.5c0-6.6-5.4-12-12-12
		h-5.2c-6.6,0-12,5.4-12,12L175.9,97.9z"/>
	<path class="st6" d="M175.9,106.4l11.4,6.1l7.6-6.1v6.6l0,0c-5.7,3.9-13.4,3.7-19-0.5l0,0V106.4z"/>
	<path class="st5" d="M181.2,92.5c-1.2-1.7-1-4,0.5-5.5l0,0c1.7-1.8,4.5-1.8,6.2-0.2l3.6,3.4L185,98L181.2,92.5z"/>
	<path class="st7" d="M149.7,269.6l0.1-0.7l26.2,0l-0.1,0.7H149.7z M186,271.1l0-0.7h26.3v0.7H186z"/>
	<path class="st1" d="M154.8,116.1c1.4-5.7,7.3-9,12.9-7.3l0,0c5.1,1.6,8.2,6.8,7,12l-7.3,32.1c-1.3,5.8-7.1,9.3-12.8,7.9l0,0
		c-5.6-1.4-9-7.1-7.7-12.7L154.8,116.1z"/>
	<path class="st0" d="M184.7,90l2.3,2.6"/>
	<path class="st8" d="M191.9,99.9c-0.2-0.1-0.4-0.1-0.5,0.1c-0.1,0.2-0.1,0.4,0.1,0.5L191.9,99.9z M194.3,102.3l0.3,0.2l0.4-0.6
		l-0.3-0.2L194.3,102.3z M191.5,100.5l2.8,1.8l0.4-0.6l-2.8-1.8L191.5,100.5z"/>
	<path class="st0" d="M167.3,154.8l4.6-28 M205.3,162.1l3.5-36.4 M162.9,161l21.6-0.7"/>
	<path class="st9" d="M182.6,227.4l8.8-43.3"/>
	<path class="st10" d="M186,288h-36.8l0.7,5h37C186.9,291.3,186.6,289.6,186,288z M224.7,288h-36.1l0.9,5h36
		C225.5,291.3,225.2,289.6,224.7,288z"/>
	<path class="st11" d="M158.3,195.6l0.4-14.6h8.7l-1.3,8.5c-0.5,3.5-3.6,6.1-7.1,6.1H158.3z"/>
	<circle class="st4" cx="201.2" cy="87.2" r="0.8"/>
	<path class="st0" d="M199.4,93.7c0.2,1,1.2,1.7,2,1.4"/>
	<path class="st5" d="M207.2,91.5l-2.8-2.3v4.4l2.5-0.9C207.5,92.5,207.6,91.8,207.2,91.5z"/>
	<path class="st8" d="M163.1,167h42.2l0.7,4.3h-43V167z"/>
	<path class="st5" d="M201.1,112.6L201.1,112.6c-0.4,1.6,0.5,3.2,2.1,3.7l6.5,1.8c1.6,0.4,3.2-0.5,3.7-2.1l0,0
		c0.4-1.6-0.5-3.2-2.1-3.7l-6.5-1.8C203.2,110,201.6,111,201.1,112.6z"/>
	<rect x="173.9" y="167" class="st3" width="1.7" height="5"/>
	<rect x="165.1" y="167" class="st3" width="1.7" height="5"/>
	<rect x="186.2" y="167" class="st3" width="1.7" height="5"/>
	<rect x="199.9" y="167" class="st2" width="1.7" height="5"/>
	<path class="st5" d="M222.9,112.6c2.2-1.2,3.2-3.8,2.2-6.1l-3.1-7.1c-1-2.4-3.7-3.5-6.1-2.6l-10.5,3.9c-2.6,1-3.8,3.9-2.7,6.4
		l3.6,8.4c1.1,2.6,4.2,3.7,6.6,2.4L222.9,112.6z"/>
	<path class="st10" d="M176.4,277l-4.2,2.3c-0.2,0.1-0.4,0-0.5-0.1c-0.1-0.2,0-0.4,0.1-0.5l4-2.2L176.4,277z M179.7,279.9l-4,2.1
		c-0.2,0.1-0.2,0.3-0.1,0.5c0.1,0.2,0.3,0.2,0.5,0.1l4.2-2.3L179.7,279.9z M215.6,277.5l-2.8,1.5c-0.2,0.1-0.2,0.3-0.1,0.5
		c0.1,0.2,0.3,0.2,0.5,0.1l3-1.6L215.6,277.5z M219.4,280.9l-2.8,1.5c-0.2,0.1-0.2,0.3-0.1,0.5c0.1,0.2,0.3,0.2,0.5,0.1l3-1.6
		L219.4,280.9z"/>
	<path class="st1" d="M184.7,139l1.4,20.3l-28.4,2c-5.6,0.4-10.5-3.8-10.9-9.5l0,0c-0.4-5.6,3.8-10.5,9.5-10.9L184.7,139z"/>
	<path class="st0" d="M158.8,140.9l25.7-1.6"/>
	<path class="st5" d="M189.5,133.2h-1c-2,0-3.6,1.6-3.6,3.6v10.1c0,2,1.6,3.6,3.6,3.6h1c2,0,3.6-1.6,3.6-3.6v-10.1
		C193.1,134.8,191.5,133.2,189.5,133.2z"/>
	<path class="st5" d="M200.5,144.1c0.5-2.3-1.2-4.4-3.5-4.4h-10.1c-2,0-3.6,1.6-3.6,3.6v9.9c0,2.1,1.7,3.7,3.8,3.6l7.9-0.5
		c1.6-0.1,2.9-1.2,3.3-2.8L200.5,144.1z"/>
</g>
</svg>
